<svg width="17" height="16" viewBox="0 0 17 16" fill="none" xmlns="http://www.w3.org/2000/svg">
<path d="M13.3334 15L13.1477 15.4642C13.3017 15.5259 13.4763 15.507 13.6137 15.414C13.7511 15.321 13.8334 15.1659 13.8334 15H13.3334ZM3.33337 15H2.83337C2.83337 15.1659 2.91567 15.321 3.05306 15.414C3.19045 15.507 3.36502 15.5259 3.51907 15.4642L3.33337 15ZM8.33337 13L8.51907 12.5358C8.39986 12.4881 8.26688 12.4881 8.14768 12.5358L8.33337 13ZM12.2414 1.21799L12.0144 1.66349L12.2414 1.21799ZM13.1154 2.09202L12.6699 2.31901L13.1154 2.09202ZM4.42539 1.21799L4.65239 1.66349L4.42539 1.21799ZM3.55136 2.09202L3.99686 2.31901L3.55136 2.09202ZM6.53337 1.5H10.1334V0.5H6.53337V1.5ZM12.8334 4.2V15H13.8334V4.2H12.8334ZM3.83337 15V4.2H2.83337V15H3.83337ZM13.5191 14.5358L8.51907 12.5358L8.14768 13.4642L13.1477 15.4642L13.5191 14.5358ZM8.14768 12.5358L3.14768 14.5358L3.51907 15.4642L8.51907 13.4642L8.14768 12.5358ZM10.1334 1.5C10.7017 1.5 11.0978 1.50039 11.4063 1.52559C11.7088 1.55031 11.8827 1.5964 12.0144 1.66349L12.4684 0.772484C12.1722 0.62159 11.8521 0.558684 11.4877 0.528909C11.1291 0.499611 10.6852 0.5 10.1334 0.5V1.5ZM13.8334 4.2C13.8334 3.6482 13.8338 3.20428 13.8045 2.84569C13.7747 2.48126 13.7118 2.16117 13.5609 1.86502L12.6699 2.31901C12.737 2.45069 12.7831 2.62454 12.8078 2.92712C12.833 3.23554 12.8334 3.6317 12.8334 4.2H13.8334ZM12.0144 1.66349C12.2966 1.8073 12.5261 2.03677 12.6699 2.31901L13.5609 1.86502C13.3212 1.39462 12.9388 1.01217 12.4684 0.772484L12.0144 1.66349ZM6.53337 0.5C5.98157 0.5 5.53765 0.499611 5.17906 0.528909C4.81464 0.558684 4.49454 0.62159 4.1984 0.772484L4.65239 1.66349C4.78407 1.5964 4.95791 1.55031 5.26049 1.52559C5.56891 1.50039 5.96507 1.5 6.53337 1.5V0.5ZM3.83337 4.2C3.83337 3.6317 3.83376 3.23554 3.85896 2.92712C3.88368 2.62454 3.92977 2.45069 3.99686 2.31901L3.10586 1.86502C2.95496 2.16117 2.89206 2.48126 2.86228 2.84569C2.83299 3.20428 2.83337 3.6482 2.83337 4.2H3.83337ZM4.1984 0.772484C3.72799 1.01217 3.34554 1.39462 3.10586 1.86502L3.99686 2.31901C4.14067 2.03677 4.37015 1.8073 4.65239 1.66349L4.1984 0.772484Z" fill="#7E7F81"/>
</svg>
