<svg width="418" height="239" viewBox="0 0 418 239" fill="none" xmlns="http://www.w3.org/2000/svg">
<path d="M20 31V18C20 17.7348 19.8946 17.4804 19.7071 17.2929C19.5196 17.1054 19.2652 17 19 17H14C13.7348 17 13.4804 17.1054 13.2929 17.2929C13.1054 17.4804 13 17.7348 13 18V30C13 30.2652 13.1054 30.5196 13.2929 30.7071C13.4804 30.8946 13.7348 31 14 31H26C26.2652 31 26.5196 30.8946 26.7071 30.7071C26.8946 30.5196 27 30.2652 27 30V25C27 24.7348 26.8946 24.4804 26.7071 24.2929C26.5196 24.1054 26.2652 24 26 24H13M25 13H30C30.5523 13 31 13.4477 31 14V19C31 19.5523 30.5523 20 30 20H25C24.4477 20 24 19.5523 24 19V14C24 13.4477 24.4477 13 25 13Z" stroke="white" stroke-width="2" stroke-linecap="round" stroke-linejoin="round"/>
<path d="M61 12V14M61 30V32M53.9 14.9L55.3 16.3M66.7 27.7L68.1 29.1M51 22H53M69 22H71M55.3 27.7L53.9 29.1M68.1 14.9L66.7 16.3M61 18C60.4984 18.5362 60.2249 19.2463 60.2371 19.9805C60.2493 20.7146 60.5464 21.4152 61.0656 21.9344C61.5848 22.4536 62.2854 22.7507 63.0195 22.7629C63.7537 22.7751 64.4638 22.5016 65 22C65 22.7911 64.7654 23.5645 64.3259 24.2223C63.8864 24.8801 63.2616 25.3928 62.5307 25.6955C61.7998 25.9983 60.9956 26.0775 60.2196 25.9231C59.4437 25.7688 58.731 25.3878 58.1716 24.8284C57.6122 24.269 57.2312 23.5563 57.0769 22.7804C56.9225 22.0044 57.0017 21.2002 57.3045 20.4693C57.6072 19.7384 58.1199 19.1136 58.7777 18.6741C59.4355 18.2346 60.2089 18 61 18Z" stroke="white" stroke-width="2" stroke-linecap="round" stroke-linejoin="round"/>
<path d="M100 26V31M104 24V31M108 20V31M110 13L101.354 21.646C101.308 21.6926 101.252 21.7295 101.192 21.7547C101.131 21.7799 101.066 21.7929 101 21.7929C100.934 21.7929 100.869 21.7799 100.808 21.7547C100.748 21.7295 100.692 21.6926 100.646 21.646L97.354 18.354C97.2602 18.2603 97.1331 18.2076 97.0005 18.2076C96.8679 18.2076 96.7408 18.2603 96.647 18.354L90 25M92 28V31M96 24V31" stroke="white" stroke-width="2" stroke-linecap="round" stroke-linejoin="round"/>
<path d="M130 27L132 29L136 25M140 16H148M140 22H148M140 28H148M131 15H135C135.552 15 136 15.4477 136 16V20C136 20.5523 135.552 21 135 21H131C130.448 21 130 20.5523 130 20V16C130 15.4477 130.448 15 131 15Z" stroke="white" stroke-width="2" stroke-linecap="round" stroke-linejoin="round"/>
<path d="M180 26.5C180 26.6326 180.053 26.7598 180.146 26.8536C180.24 26.9473 180.367 27 180.5 27H181C181.53 27 182.039 27.2107 182.414 27.5858C182.789 27.9609 183 28.4696 183 29C183 29.5304 182.789 30.0391 182.414 30.4142C182.039 30.7893 181.53 31 181 31H175C174.47 31 173.961 30.7893 173.586 30.4142C173.211 30.0391 173 29.5304 173 29C173 28.4696 173.211 27.9609 173.586 27.5858C173.961 27.2107 174.47 27 175 27H175.5C175.633 27 175.76 26.9473 175.854 26.8536C175.947 26.7598 176 26.6326 176 26.5V17.5C176 17.3674 175.947 17.2402 175.854 17.1464C175.76 17.0527 175.633 17 175.5 17H172.5C172.367 17 172.24 17.0527 172.146 17.1464C172.053 17.2402 172 17.3674 172 17.5V18C172 18.5304 171.789 19.0391 171.414 19.4142C171.039 19.7893 170.53 20 170 20C169.47 20 168.961 19.7893 168.586 19.4142C168.211 19.0391 168 18.5304 168 18V15C168 14.4696 168.211 13.9609 168.586 13.5858C168.961 13.2107 169.47 13 170 13H186C186.53 13 187.039 13.2107 187.414 13.5858C187.789 13.9609 188 14.4696 188 15V18C188 18.5304 187.789 19.0391 187.414 19.4142C187.039 19.7893 186.53 20 186 20C185.47 20 184.961 19.7893 184.586 19.4142C184.211 19.0391 184 18.5304 184 18V17.5C184 17.3674 183.947 17.2402 183.854 17.1464C183.76 17.0527 183.633 17 183.5 17H180.5C180.367 17 180.24 17.0527 180.146 17.1464C180.053 17.2402 180 17.3674 180 17.5V26.5Z" stroke="white" stroke-width="2" stroke-linecap="round" stroke-linejoin="round"/>
<path d="M209 29.5V14.5C209 13.837 209.263 13.2011 209.732 12.7322C210.201 12.2634 210.837 12 211.5 12H224C224.265 12 224.52 12.1054 224.707 12.2929C224.895 12.4804 225 12.7348 225 13V31C225 31.2652 224.895 31.5196 224.707 31.7071C224.52 31.8946 224.265 32 224 32H211.5C210.837 32 210.201 31.7366 209.732 31.2678C209.263 30.7989 209 30.163 209 29.5ZM209 29.5C209 28.837 209.263 28.2011 209.732 27.7322C210.201 27.2634 210.837 27 211.5 27H225M213 23L217 16L221 23M214.1 21H219.8" stroke="white" stroke-width="2" stroke-linecap="round" stroke-linejoin="round"/>
<path d="M252 22H256M254 26V19.5C254 18.8369 254.263 18.201 254.732 17.7322C255.201 17.2634 255.837 17 256.5 17C257.163 17 257.799 17.2634 258.268 17.7322C258.737 18.201 259 18.8369 259 19.5M252 26H259M247.85 18.62C247.704 17.9625 247.726 17.2788 247.915 16.6323C248.104 15.9858 248.453 15.3974 248.929 14.9217C249.406 14.446 249.995 14.0983 250.642 13.911C251.289 13.7236 251.973 13.7026 252.63 13.85C252.992 13.2843 253.49 12.8187 254.079 12.4963C254.668 12.1738 255.329 12.0048 256 12.0048C256.671 12.0048 257.332 12.1738 257.921 12.4963C258.51 12.8187 259.008 13.2843 259.37 13.85C260.028 13.702 260.713 13.7229 261.361 13.9107C262.009 14.0985 262.599 14.4471 263.076 14.9241C263.553 15.4011 263.901 15.991 264.089 16.639C264.277 17.2869 264.298 17.9718 264.15 18.63C264.716 18.9917 265.181 19.49 265.504 20.0789C265.826 20.6679 265.995 21.3285 265.995 22C265.995 22.6714 265.826 23.3321 265.504 23.921C265.181 24.51 264.716 25.0083 264.15 25.37C264.297 26.0271 264.276 26.7109 264.089 27.3578C263.902 28.0047 263.554 28.5938 263.078 29.0705C262.603 29.5472 262.014 29.8961 261.368 30.0848C260.721 30.2735 260.037 30.2959 259.38 30.15C259.019 30.7178 258.52 31.1854 257.93 31.5093C257.34 31.8332 256.678 32.003 256.005 32.003C255.332 32.003 254.67 31.8332 254.08 31.5093C253.49 31.1854 252.991 30.7178 252.63 30.15C251.973 30.2973 251.289 30.2763 250.642 30.089C249.995 29.9016 249.406 29.554 248.929 29.0783C248.453 28.6025 248.104 28.0141 247.915 27.3676C247.726 26.7211 247.704 26.0374 247.85 25.38C247.28 25.0192 246.81 24.5201 246.485 23.9292C246.16 23.3382 245.989 22.6746 245.989 22C245.989 21.3254 246.16 20.6617 246.485 20.0708C246.81 19.4798 247.28 18.9807 247.85 18.62Z" stroke="white" stroke-width="2" stroke-linecap="round" stroke-linejoin="round"/>
<path d="M293 19.5L291 22L293 24.5M297 19.5L299 22L297 24.5M288 13H302C303.105 13 304 13.8954 304 15V29C304 30.1046 303.105 31 302 31H288C286.895 31 286 30.1046 286 29V15C286 13.8954 286.895 13 288 13Z" stroke="white" stroke-width="2" stroke-linecap="round" stroke-linejoin="round"/>
<path d="M340 29L341 22L335 23M327 18L330 15L335.5 18L333.14 21.5M326.24 24.5C325.958 25.4231 325.949 26.4081 326.214 27.3361C326.48 28.2641 327.008 29.0955 327.735 29.73C328.463 30.3644 329.358 30.7746 330.314 30.9113C331.269 31.0479 332.244 30.9051 333.12 30.5M335.76 27.5C336.042 26.5769 336.051 25.5919 335.786 24.6639C335.52 23.7359 334.992 22.9045 334.265 22.27C333.537 21.6356 332.642 21.2254 331.686 21.0887C330.731 20.9521 329.756 21.0949 328.88 21.5M339 14C339 14.5523 338.552 15 338 15C337.448 15 337 14.5523 337 14C337 13.4477 337.448 13 338 13C338.552 13 339 13.4477 339 14Z" stroke="white" stroke-width="2" stroke-linecap="round" stroke-linejoin="round"/>
<path d="M366 18L372 24M365 24L371 18L373 15M363 15H375M368 12H369M383 32L378 22L373 32M375 28H381" stroke="white" stroke-width="2" stroke-linecap="round" stroke-linejoin="round"/>
<path d="M38 57L44 63M37 63L43 57L45 54M35 54H47M40 51H41M55 71L50 61L45 71M47 67H53" stroke="white" stroke-width="2" stroke-linecap="round" stroke-linejoin="round"/>
<path d="M90 68L91 61L85 62M77 57L80 54L85.5 57L83.14 60.5M76.24 63.5C75.9578 64.4231 75.9489 65.4081 76.2142 66.3361C76.4795 67.2641 77.0078 68.0955 77.7353 68.73C78.4627 69.3644 79.3583 69.7746 80.3138 69.9113C81.2693 70.0479 82.2439 69.9051 83.12 69.5M85.76 66.5C86.0422 65.5769 86.0511 64.5919 85.7858 63.6639C85.5205 62.7359 84.9922 61.9045 84.2647 61.27C83.5373 60.6356 82.6417 60.2254 81.6862 60.0887C80.7307 59.9521 79.7561 60.0949 78.88 60.5M89 53C89 53.5523 88.5523 54 88 54C87.4477 54 87 53.5523 87 53C87 52.4477 87.4477 52 88 52C88.5523 52 89 52.4477 89 53Z" stroke="white" stroke-width="2" stroke-linecap="round" stroke-linejoin="round"/>
<path d="M121 58.5L119 61L121 63.5M125 58.5L127 61L125 63.5M116 52H130C131.105 52 132 52.8954 132 54V68C132 69.1046 131.105 70 130 70H116C114.895 70 114 69.1046 114 68V54C114 52.8954 114.895 52 116 52Z" stroke="white" stroke-width="2" stroke-linecap="round" stroke-linejoin="round"/>
<path d="M158 61H162M160 65V58.5C160 57.8369 160.263 57.201 160.732 56.7322C161.201 56.2634 161.837 56 162.5 56C163.163 56 163.799 56.2634 164.268 56.7322C164.737 57.201 165 57.8369 165 58.5M158 65H165M153.85 57.62C153.704 56.9625 153.726 56.2788 153.915 55.6323C154.104 54.9858 154.453 54.3974 154.929 53.9217C155.406 53.446 155.995 53.0983 156.642 52.911C157.289 52.7236 157.973 52.7026 158.63 52.85C158.992 52.2843 159.49 51.8187 160.079 51.4963C160.668 51.1738 161.329 51.0048 162 51.0048C162.671 51.0048 163.332 51.1738 163.921 51.4963C164.51 51.8187 165.008 52.2843 165.37 52.85C166.028 52.702 166.713 52.7229 167.361 52.9107C168.009 53.0985 168.599 53.4471 169.076 53.9241C169.553 54.4011 169.901 54.991 170.089 55.639C170.277 56.2869 170.298 56.9718 170.15 57.63C170.716 57.9917 171.181 58.49 171.504 59.0789C171.826 59.6679 171.995 60.3285 171.995 61C171.995 61.6714 171.826 62.3321 171.504 62.921C171.181 63.51 170.716 64.0083 170.15 64.37C170.297 65.0271 170.276 65.7109 170.089 66.3578C169.902 67.0047 169.554 67.5938 169.078 68.0705C168.603 68.5472 168.014 68.8961 167.368 69.0848C166.721 69.2735 166.037 69.2959 165.38 69.15C165.019 69.7178 164.52 70.1854 163.93 70.5093C163.34 70.8332 162.678 71.003 162.005 71.003C161.332 71.003 160.67 70.8332 160.08 70.5093C159.49 70.1854 158.991 69.7178 158.63 69.15C157.973 69.2973 157.289 69.2763 156.642 69.089C155.995 68.9016 155.406 68.554 154.929 68.0783C154.453 67.6025 154.104 67.0141 153.915 66.3676C153.726 65.7211 153.704 65.0374 153.85 64.38C153.28 64.0192 152.81 63.5201 152.485 62.9292C152.16 62.3382 151.989 61.6746 151.989 61C151.989 60.3254 152.16 59.6617 152.485 59.0708C152.81 58.4798 153.28 57.9807 153.85 57.62Z" stroke="white" stroke-width="2" stroke-linecap="round" stroke-linejoin="round"/>
<path d="M193 68.5V53.5C193 52.837 193.263 52.2011 193.732 51.7322C194.201 51.2634 194.837 51 195.5 51H208C208.265 51 208.52 51.1054 208.707 51.2929C208.895 51.4804 209 51.7348 209 52V70C209 70.2652 208.895 70.5196 208.707 70.7071C208.52 70.8946 208.265 71 208 71H195.5C194.837 71 194.201 70.7366 193.732 70.2678C193.263 69.7989 193 69.163 193 68.5ZM193 68.5C193 67.837 193.263 67.2011 193.732 66.7322C194.201 66.2634 194.837 66 195.5 66H209M197 62L201 55L205 62M198.1 60H203.8" stroke="white" stroke-width="2" stroke-linecap="round" stroke-linejoin="round"/>
<path d="M242 65.5C242 65.6326 242.053 65.7598 242.146 65.8536C242.24 65.9473 242.367 66 242.5 66H243C243.53 66 244.039 66.2107 244.414 66.5858C244.789 66.9609 245 67.4696 245 68C245 68.5304 244.789 69.0391 244.414 69.4142C244.039 69.7893 243.53 70 243 70H237C236.47 70 235.961 69.7893 235.586 69.4142C235.211 69.0391 235 68.5304 235 68C235 67.4696 235.211 66.9609 235.586 66.5858C235.961 66.2107 236.47 66 237 66H237.5C237.633 66 237.76 65.9473 237.854 65.8536C237.947 65.7598 238 65.6326 238 65.5V56.5C238 56.3674 237.947 56.2402 237.854 56.1464C237.76 56.0527 237.633 56 237.5 56H234.5C234.367 56 234.24 56.0527 234.146 56.1464C234.053 56.2402 234 56.3674 234 56.5V57C234 57.5304 233.789 58.0391 233.414 58.4142C233.039 58.7893 232.53 59 232 59C231.47 59 230.961 58.7893 230.586 58.4142C230.211 58.0391 230 57.5304 230 57V54C230 53.4696 230.211 52.9609 230.586 52.5858C230.961 52.2107 231.47 52 232 52H248C248.53 52 249.039 52.2107 249.414 52.5858C249.789 52.9609 250 53.4696 250 54V57C250 57.5304 249.789 58.0391 249.414 58.4142C249.039 58.7893 248.53 59 248 59C247.47 59 246.961 58.7893 246.586 58.4142C246.211 58.0391 246 57.5304 246 57V56.5C246 56.3674 245.947 56.2402 245.854 56.1464C245.76 56.0527 245.633 56 245.5 56H242.5C242.367 56 242.24 56.0527 242.146 56.1464C242.053 56.2402 242 56.3674 242 56.5V65.5Z" stroke="white" stroke-width="2" stroke-linecap="round" stroke-linejoin="round"/>
<path d="M270 66L272 68L276 64M280 55H288M280 61H288M280 67H288M271 54H275C275.552 54 276 54.4477 276 55V59C276 59.5523 275.552 60 275 60H271C270.448 60 270 59.5523 270 59V55C270 54.4477 270.448 54 271 54Z" stroke="white" stroke-width="2" stroke-linecap="round" stroke-linejoin="round"/>
<path d="M318 65V70M322 63V70M326 59V70M328 52L319.354 60.646C319.308 60.6926 319.252 60.7295 319.192 60.7547C319.131 60.7799 319.066 60.7929 319 60.7929C318.934 60.7929 318.869 60.7799 318.808 60.7547C318.748 60.7295 318.692 60.6926 318.646 60.646L315.354 57.354C315.26 57.2603 315.133 57.2076 315 57.2076C314.868 57.2076 314.741 57.2603 314.647 57.354L308 64M310 67V70M314 63V70" stroke="white" stroke-width="2" stroke-linecap="round" stroke-linejoin="round"/>
<path d="M357 51V53M357 69V71M349.9 53.9L351.3 55.3M362.7 66.7L364.1 68.1M347 61H349M365 61H367M351.3 66.7L349.9 68.1M364.1 53.9L362.7 55.3M357 57C356.498 57.5362 356.225 58.2463 356.237 58.9805C356.249 59.7146 356.546 60.4152 357.066 60.9344C357.585 61.4536 358.285 61.7507 359.02 61.7629C359.754 61.7751 360.464 61.5016 361 61C361 61.7911 360.765 62.5645 360.326 63.2223C359.886 63.8801 359.262 64.3928 358.531 64.6955C357.8 64.9983 356.996 65.0775 356.22 64.9231C355.444 64.7688 354.731 64.3878 354.172 63.8284C353.612 63.269 353.231 62.5563 353.077 61.7804C352.923 61.0044 353.002 60.2002 353.304 59.4693C353.607 58.7384 354.12 58.1136 354.778 57.6741C355.436 57.2346 356.209 57 357 57Z" stroke="white" stroke-width="2" stroke-linecap="round" stroke-linejoin="round"/>
<path d="M394 70V57C394 56.7348 393.895 56.4804 393.707 56.2929C393.52 56.1054 393.265 56 393 56H388C387.735 56 387.48 56.1054 387.293 56.2929C387.105 56.4804 387 56.7348 387 57V69C387 69.2652 387.105 69.5196 387.293 69.7071C387.48 69.8946 387.735 70 388 70H400C400.265 70 400.52 69.8946 400.707 69.7071C400.895 69.5196 401 69.2652 401 69V64C401 63.7348 400.895 63.4804 400.707 63.2929C400.52 63.1054 400.265 63 400 63H387M399 52H404C404.552 52 405 52.4477 405 53V58C405 58.5523 404.552 59 404 59H399C398.448 59 398 58.5523 398 58V53C398 52.4477 398.448 52 399 52Z" stroke="white" stroke-width="2" stroke-linecap="round" stroke-linejoin="round"/>
<path d="M20 109V96C20 95.7348 19.8946 95.4804 19.7071 95.2929C19.5196 95.1054 19.2652 95 19 95H14C13.7348 95 13.4804 95.1054 13.2929 95.2929C13.1054 95.4804 13 95.7348 13 96V108C13 108.265 13.1054 108.52 13.2929 108.707C13.4804 108.895 13.7348 109 14 109H26C26.2652 109 26.5196 108.895 26.7071 108.707C26.8946 108.52 27 108.265 27 108V103C27 102.735 26.8946 102.48 26.7071 102.293C26.5196 102.105 26.2652 102 26 102H13M25 91H30C30.5523 91 31 91.4477 31 92V97C31 97.5523 30.5523 98 30 98H25C24.4477 98 24 97.5523 24 97V92C24 91.4477 24.4477 91 25 91Z" stroke="white" stroke-width="2" stroke-linecap="round" stroke-linejoin="round"/>
<path d="M61 90V92M61 108V110M53.9 92.9L55.3 94.3M66.7 105.7L68.1 107.1M51 100H53M69 100H71M55.3 105.7L53.9 107.1M68.1 92.9L66.7 94.3M61 96C60.4984 96.5362 60.2249 97.2463 60.2371 97.9805C60.2493 98.7146 60.5464 99.4152 61.0656 99.9344C61.5848 100.454 62.2854 100.751 63.0195 100.763C63.7537 100.775 64.4638 100.502 65 100C65 100.791 64.7654 101.564 64.3259 102.222C63.8864 102.88 63.2616 103.393 62.5307 103.696C61.7998 103.998 60.9956 104.077 60.2196 103.923C59.4437 103.769 58.731 103.388 58.1716 102.828C57.6122 102.269 57.2312 101.556 57.0769 100.78C56.9225 100.004 57.0017 99.2002 57.3045 98.4693C57.6072 97.7384 58.1199 97.1136 58.7777 96.6741C59.4355 96.2346 60.2089 96 61 96Z" stroke="white" stroke-width="2" stroke-linecap="round" stroke-linejoin="round"/>
<path d="M100 104V109M104 102V109M108 98V109M110 91L101.354 99.646C101.308 99.6926 101.252 99.7295 101.192 99.7547C101.131 99.7799 101.066 99.7929 101 99.7929C100.934 99.7929 100.869 99.7799 100.808 99.7547C100.748 99.7295 100.692 99.6926 100.646 99.646L97.354 96.354C97.2602 96.2603 97.1331 96.2076 97.0005 96.2076C96.8679 96.2076 96.7408 96.2603 96.647 96.354L90 103M92 106V109M96 102V109" stroke="white" stroke-width="2" stroke-linecap="round" stroke-linejoin="round"/>
<path d="M130 105L132 107L136 103M140 94H148M140 100H148M140 106H148M131 93H135C135.552 93 136 93.4477 136 94V98C136 98.5523 135.552 99 135 99H131C130.448 99 130 98.5523 130 98V94C130 93.4477 130.448 93 131 93Z" stroke="white" stroke-width="2" stroke-linecap="round" stroke-linejoin="round"/>
<path d="M180 104.5C180 104.633 180.053 104.76 180.146 104.854C180.24 104.947 180.367 105 180.5 105H181C181.53 105 182.039 105.211 182.414 105.586C182.789 105.961 183 106.47 183 107C183 107.53 182.789 108.039 182.414 108.414C182.039 108.789 181.53 109 181 109H175C174.47 109 173.961 108.789 173.586 108.414C173.211 108.039 173 107.53 173 107C173 106.47 173.211 105.961 173.586 105.586C173.961 105.211 174.47 105 175 105H175.5C175.633 105 175.76 104.947 175.854 104.854C175.947 104.76 176 104.633 176 104.5V95.5C176 95.3674 175.947 95.2402 175.854 95.1464C175.76 95.0527 175.633 95 175.5 95H172.5C172.367 95 172.24 95.0527 172.146 95.1464C172.053 95.2402 172 95.3674 172 95.5V96C172 96.5304 171.789 97.0391 171.414 97.4142C171.039 97.7893 170.53 98 170 98C169.47 98 168.961 97.7893 168.586 97.4142C168.211 97.0391 168 96.5304 168 96V93C168 92.4696 168.211 91.9609 168.586 91.5858C168.961 91.2107 169.47 91 170 91H186C186.53 91 187.039 91.2107 187.414 91.5858C187.789 91.9609 188 92.4696 188 93V96C188 96.5304 187.789 97.0391 187.414 97.4142C187.039 97.7893 186.53 98 186 98C185.47 98 184.961 97.7893 184.586 97.4142C184.211 97.0391 184 96.5304 184 96V95.5C184 95.3674 183.947 95.2402 183.854 95.1464C183.76 95.0527 183.633 95 183.5 95H180.5C180.367 95 180.24 95.0527 180.146 95.1464C180.053 95.2402 180 95.3674 180 95.5V104.5Z" stroke="white" stroke-width="2" stroke-linecap="round" stroke-linejoin="round"/>
<path d="M209 107.5V92.5C209 91.837 209.263 91.2011 209.732 90.7322C210.201 90.2634 210.837 90 211.5 90H224C224.265 90 224.52 90.1054 224.707 90.2929C224.895 90.4804 225 90.7348 225 91V109C225 109.265 224.895 109.52 224.707 109.707C224.52 109.895 224.265 110 224 110H211.5C210.837 110 210.201 109.737 209.732 109.268C209.263 108.799 209 108.163 209 107.5ZM209 107.5C209 106.837 209.263 106.201 209.732 105.732C210.201 105.263 210.837 105 211.5 105H225M213 101L217 94L221 101M214.1 99H219.8" stroke="white" stroke-width="2" stroke-linecap="round" stroke-linejoin="round"/>
<path d="M252 100H256M254 104V97.5C254 96.8369 254.263 96.201 254.732 95.7322C255.201 95.2634 255.837 95 256.5 95C257.163 95 257.799 95.2634 258.268 95.7322C258.737 96.201 259 96.8369 259 97.5M252 104H259M247.85 96.62C247.704 95.9625 247.726 95.2788 247.915 94.6323C248.104 93.9858 248.453 93.3974 248.929 92.9217C249.406 92.446 249.995 92.0983 250.642 91.911C251.289 91.7236 251.973 91.7026 252.63 91.85C252.992 91.2843 253.49 90.8187 254.079 90.4963C254.668 90.1738 255.329 90.0048 256 90.0048C256.671 90.0048 257.332 90.1738 257.921 90.4963C258.51 90.8187 259.008 91.2843 259.37 91.85C260.028 91.702 260.713 91.7229 261.361 91.9107C262.009 92.0985 262.599 92.4471 263.076 92.9241C263.553 93.4011 263.901 93.991 264.089 94.639C264.277 95.2869 264.298 95.9718 264.15 96.63C264.716 96.9917 265.181 97.49 265.504 98.0789C265.826 98.6679 265.995 99.3285 265.995 100C265.995 100.671 265.826 101.332 265.504 101.921C265.181 102.51 264.716 103.008 264.15 103.37C264.297 104.027 264.276 104.711 264.089 105.358C263.902 106.005 263.554 106.594 263.078 107.071C262.603 107.547 262.014 107.896 261.368 108.085C260.721 108.274 260.037 108.296 259.38 108.15C259.019 108.718 258.52 109.185 257.93 109.509C257.34 109.833 256.678 110.003 256.005 110.003C255.332 110.003 254.67 109.833 254.08 109.509C253.49 109.185 252.991 108.718 252.63 108.15C251.973 108.297 251.289 108.276 250.642 108.089C249.995 107.902 249.406 107.554 248.929 107.078C248.453 106.603 248.104 106.014 247.915 105.368C247.726 104.721 247.704 104.037 247.85 103.38C247.28 103.019 246.81 102.52 246.485 101.929C246.16 101.338 245.989 100.675 245.989 100C245.989 99.3254 246.16 98.6617 246.485 98.0708C246.81 97.4798 247.28 96.9807 247.85 96.62Z" stroke="white" stroke-width="2" stroke-linecap="round" stroke-linejoin="round"/>
<path d="M293 97.5L291 100L293 102.5M297 97.5L299 100L297 102.5M288 91H302C303.105 91 304 91.8954 304 93V107C304 108.105 303.105 109 302 109H288C286.895 109 286 108.105 286 107V93C286 91.8954 286.895 91 288 91Z" stroke="white" stroke-width="2" stroke-linecap="round" stroke-linejoin="round"/>
<path d="M340 107L341 100L335 101M327 96L330 93L335.5 96L333.14 99.5M326.24 102.5C325.958 103.423 325.949 104.408 326.214 105.336C326.48 106.264 327.008 107.096 327.735 107.73C328.463 108.364 329.358 108.775 330.314 108.911C331.269 109.048 332.244 108.905 333.12 108.5M335.76 105.5C336.042 104.577 336.051 103.592 335.786 102.664C335.52 101.736 334.992 100.904 334.265 100.27C333.537 99.6356 332.642 99.2254 331.686 99.0887C330.731 98.9521 329.756 99.0949 328.88 99.5M339 92C339 92.5523 338.552 93 338 93C337.448 93 337 92.5523 337 92C337 91.4477 337.448 91 338 91C338.552 91 339 91.4477 339 92Z" stroke="white" stroke-width="2" stroke-linecap="round" stroke-linejoin="round"/>
<path d="M366 96L372 102M365 102L371 96L373 93M363 93H375M368 90H369M383 110L378 100L373 110M375 106H381" stroke="white" stroke-width="2" stroke-linecap="round" stroke-linejoin="round"/>
<path d="M38 135L44 141M37 141L43 135L45 132M35 132H47M40 129H41M55 149L50 139L45 149M47 145H53" stroke="white" stroke-width="2" stroke-linecap="round" stroke-linejoin="round"/>
<path d="M90 146L91 139L85 140M77 135L80 132L85.5 135L83.14 138.5M76.24 141.5C75.9578 142.423 75.9489 143.408 76.2142 144.336C76.4795 145.264 77.0078 146.096 77.7353 146.73C78.4627 147.364 79.3583 147.775 80.3138 147.911C81.2693 148.048 82.2439 147.905 83.12 147.5M85.76 144.5C86.0422 143.577 86.0511 142.592 85.7858 141.664C85.5205 140.736 84.9922 139.904 84.2647 139.27C83.5373 138.636 82.6417 138.225 81.6862 138.089C80.7307 137.952 79.7561 138.095 78.88 138.5M89 131C89 131.552 88.5523 132 88 132C87.4477 132 87 131.552 87 131C87 130.448 87.4477 130 88 130C88.5523 130 89 130.448 89 131Z" stroke="white" stroke-width="2" stroke-linecap="round" stroke-linejoin="round"/>
<path d="M121 136.5L119 139L121 141.5M125 136.5L127 139L125 141.5M116 130H130C131.105 130 132 130.895 132 132V146C132 147.105 131.105 148 130 148H116C114.895 148 114 147.105 114 146V132C114 130.895 114.895 130 116 130Z" stroke="white" stroke-width="2" stroke-linecap="round" stroke-linejoin="round"/>
<path d="M158 139H162M160 143V136.5C160 135.837 160.263 135.201 160.732 134.732C161.201 134.263 161.837 134 162.5 134C163.163 134 163.799 134.263 164.268 134.732C164.737 135.201 165 135.837 165 136.5M158 143H165M153.85 135.62C153.704 134.963 153.726 134.279 153.915 133.632C154.104 132.986 154.453 132.397 154.929 131.922C155.406 131.446 155.995 131.098 156.642 130.911C157.289 130.724 157.973 130.703 158.63 130.85C158.992 130.284 159.49 129.819 160.079 129.496C160.668 129.174 161.329 129.005 162 129.005C162.671 129.005 163.332 129.174 163.921 129.496C164.51 129.819 165.008 130.284 165.37 130.85C166.028 130.702 166.713 130.723 167.361 130.911C168.009 131.098 168.599 131.447 169.076 131.924C169.553 132.401 169.901 132.991 170.089 133.639C170.277 134.287 170.298 134.972 170.15 135.63C170.716 135.992 171.181 136.49 171.504 137.079C171.826 137.668 171.995 138.329 171.995 139C171.995 139.671 171.826 140.332 171.504 140.921C171.181 141.51 170.716 142.008 170.15 142.37C170.297 143.027 170.276 143.711 170.089 144.358C169.902 145.005 169.554 145.594 169.078 146.071C168.603 146.547 168.014 146.896 167.368 147.085C166.721 147.274 166.037 147.296 165.38 147.15C165.019 147.718 164.52 148.185 163.93 148.509C163.34 148.833 162.678 149.003 162.005 149.003C161.332 149.003 160.67 148.833 160.08 148.509C159.49 148.185 158.991 147.718 158.63 147.15C157.973 147.297 157.289 147.276 156.642 147.089C155.995 146.902 155.406 146.554 154.929 146.078C154.453 145.603 154.104 145.014 153.915 144.368C153.726 143.721 153.704 143.037 153.85 142.38C153.28 142.019 152.81 141.52 152.485 140.929C152.16 140.338 151.989 139.675 151.989 139C151.989 138.325 152.16 137.662 152.485 137.071C152.81 136.48 153.28 135.981 153.85 135.62Z" stroke="white" stroke-width="2" stroke-linecap="round" stroke-linejoin="round"/>
<path d="M193 146.5V131.5C193 130.837 193.263 130.201 193.732 129.732C194.201 129.263 194.837 129 195.5 129H208C208.265 129 208.52 129.105 208.707 129.293C208.895 129.48 209 129.735 209 130V148C209 148.265 208.895 148.52 208.707 148.707C208.52 148.895 208.265 149 208 149H195.5C194.837 149 194.201 148.737 193.732 148.268C193.263 147.799 193 147.163 193 146.5ZM193 146.5C193 145.837 193.263 145.201 193.732 144.732C194.201 144.263 194.837 144 195.5 144H209M197 140L201 133L205 140M198.1 138H203.8" stroke="white" stroke-width="2" stroke-linecap="round" stroke-linejoin="round"/>
<path d="M242 143.5C242 143.633 242.053 143.76 242.146 143.854C242.24 143.947 242.367 144 242.5 144H243C243.53 144 244.039 144.211 244.414 144.586C244.789 144.961 245 145.47 245 146C245 146.53 244.789 147.039 244.414 147.414C244.039 147.789 243.53 148 243 148H237C236.47 148 235.961 147.789 235.586 147.414C235.211 147.039 235 146.53 235 146C235 145.47 235.211 144.961 235.586 144.586C235.961 144.211 236.47 144 237 144H237.5C237.633 144 237.76 143.947 237.854 143.854C237.947 143.76 238 143.633 238 143.5V134.5C238 134.367 237.947 134.24 237.854 134.146C237.76 134.053 237.633 134 237.5 134H234.5C234.367 134 234.24 134.053 234.146 134.146C234.053 134.24 234 134.367 234 134.5V135C234 135.53 233.789 136.039 233.414 136.414C233.039 136.789 232.53 137 232 137C231.47 137 230.961 136.789 230.586 136.414C230.211 136.039 230 135.53 230 135V132C230 131.47 230.211 130.961 230.586 130.586C230.961 130.211 231.47 130 232 130H248C248.53 130 249.039 130.211 249.414 130.586C249.789 130.961 250 131.47 250 132V135C250 135.53 249.789 136.039 249.414 136.414C249.039 136.789 248.53 137 248 137C247.47 137 246.961 136.789 246.586 136.414C246.211 136.039 246 135.53 246 135V134.5C246 134.367 245.947 134.24 245.854 134.146C245.76 134.053 245.633 134 245.5 134H242.5C242.367 134 242.24 134.053 242.146 134.146C242.053 134.24 242 134.367 242 134.5V143.5Z" stroke="white" stroke-width="2" stroke-linecap="round" stroke-linejoin="round"/>
<path d="M270 144L272 146L276 142M280 133H288M280 139H288M280 145H288M271 132H275C275.552 132 276 132.448 276 133V137C276 137.552 275.552 138 275 138H271C270.448 138 270 137.552 270 137V133C270 132.448 270.448 132 271 132Z" stroke="white" stroke-width="2" stroke-linecap="round" stroke-linejoin="round"/>
<path d="M318 143V148M322 141V148M326 137V148M328 130L319.354 138.646C319.308 138.693 319.252 138.73 319.192 138.755C319.131 138.78 319.066 138.793 319 138.793C318.934 138.793 318.869 138.78 318.808 138.755C318.748 138.73 318.692 138.693 318.646 138.646L315.354 135.354C315.26 135.26 315.133 135.208 315 135.208C314.868 135.208 314.741 135.26 314.647 135.354L308 142M310 145V148M314 141V148" stroke="white" stroke-width="2" stroke-linecap="round" stroke-linejoin="round"/>
<path d="M357 129V131M357 147V149M349.9 131.9L351.3 133.3M362.7 144.7L364.1 146.1M347 139H349M365 139H367M351.3 144.7L349.9 146.1M364.1 131.9L362.7 133.3M357 135C356.498 135.536 356.225 136.246 356.237 136.98C356.249 137.715 356.546 138.415 357.066 138.934C357.585 139.454 358.285 139.751 359.02 139.763C359.754 139.775 360.464 139.502 361 139C361 139.791 360.765 140.564 360.326 141.222C359.886 141.88 359.262 142.393 358.531 142.696C357.8 142.998 356.996 143.077 356.22 142.923C355.444 142.769 354.731 142.388 354.172 141.828C353.612 141.269 353.231 140.556 353.077 139.78C352.923 139.004 353.002 138.2 353.304 137.469C353.607 136.738 354.12 136.114 354.778 135.674C355.436 135.235 356.209 135 357 135Z" stroke="white" stroke-width="2" stroke-linecap="round" stroke-linejoin="round"/>
<path d="M394 148V135C394 134.735 393.895 134.48 393.707 134.293C393.52 134.105 393.265 134 393 134H388C387.735 134 387.48 134.105 387.293 134.293C387.105 134.48 387 134.735 387 135V147C387 147.265 387.105 147.52 387.293 147.707C387.48 147.895 387.735 148 388 148H400C400.265 148 400.52 147.895 400.707 147.707C400.895 147.52 401 147.265 401 147V142C401 141.735 400.895 141.48 400.707 141.293C400.52 141.105 400.265 141 400 141H387M399 130H404C404.552 130 405 130.448 405 131V136C405 136.552 404.552 137 404 137H399C398.448 137 398 136.552 398 136V131C398 130.448 398.448 130 399 130Z" stroke="white" stroke-width="2" stroke-linecap="round" stroke-linejoin="round"/>
<path d="M20 187V174C20 173.735 19.8946 173.48 19.7071 173.293C19.5196 173.105 19.2652 173 19 173H14C13.7348 173 13.4804 173.105 13.2929 173.293C13.1054 173.48 13 173.735 13 174V186C13 186.265 13.1054 186.52 13.2929 186.707C13.4804 186.895 13.7348 187 14 187H26C26.2652 187 26.5196 186.895 26.7071 186.707C26.8946 186.52 27 186.265 27 186V181C27 180.735 26.8946 180.48 26.7071 180.293C26.5196 180.105 26.2652 180 26 180H13M25 169H30C30.5523 169 31 169.448 31 170V175C31 175.552 30.5523 176 30 176H25C24.4477 176 24 175.552 24 175V170C24 169.448 24.4477 169 25 169Z" stroke="white" stroke-width="2" stroke-linecap="round" stroke-linejoin="round"/>
<path d="M61 168V170M61 186V188M53.9 170.9L55.3 172.3M66.7 183.7L68.1 185.1M51 178H53M69 178H71M55.3 183.7L53.9 185.1M68.1 170.9L66.7 172.3M61 174C60.4984 174.536 60.2249 175.246 60.2371 175.98C60.2493 176.715 60.5464 177.415 61.0656 177.934C61.5848 178.454 62.2854 178.751 63.0195 178.763C63.7537 178.775 64.4638 178.502 65 178C65 178.791 64.7654 179.564 64.3259 180.222C63.8864 180.88 63.2616 181.393 62.5307 181.696C61.7998 181.998 60.9956 182.077 60.2196 181.923C59.4437 181.769 58.731 181.388 58.1716 180.828C57.6122 180.269 57.2312 179.556 57.0769 178.78C56.9225 178.004 57.0017 177.2 57.3045 176.469C57.6072 175.738 58.1199 175.114 58.7777 174.674C59.4355 174.235 60.2089 174 61 174Z" stroke="white" stroke-width="2" stroke-linecap="round" stroke-linejoin="round"/>
<path d="M100 182V187M104 180V187M108 176V187M110 169L101.354 177.646C101.308 177.693 101.252 177.73 101.192 177.755C101.131 177.78 101.066 177.793 101 177.793C100.934 177.793 100.869 177.78 100.808 177.755C100.748 177.73 100.692 177.693 100.646 177.646L97.354 174.354C97.2602 174.26 97.1331 174.208 97.0005 174.208C96.8679 174.208 96.7408 174.26 96.647 174.354L90 181M92 184V187M96 180V187" stroke="white" stroke-width="2" stroke-linecap="round" stroke-linejoin="round"/>
<path d="M130 183L132 185L136 181M140 172H148M140 178H148M140 184H148M131 171H135C135.552 171 136 171.448 136 172V176C136 176.552 135.552 177 135 177H131C130.448 177 130 176.552 130 176V172C130 171.448 130.448 171 131 171Z" stroke="white" stroke-width="2" stroke-linecap="round" stroke-linejoin="round"/>
<path d="M180 182.5C180 182.633 180.053 182.76 180.146 182.854C180.24 182.947 180.367 183 180.5 183H181C181.53 183 182.039 183.211 182.414 183.586C182.789 183.961 183 184.47 183 185C183 185.53 182.789 186.039 182.414 186.414C182.039 186.789 181.53 187 181 187H175C174.47 187 173.961 186.789 173.586 186.414C173.211 186.039 173 185.53 173 185C173 184.47 173.211 183.961 173.586 183.586C173.961 183.211 174.47 183 175 183H175.5C175.633 183 175.76 182.947 175.854 182.854C175.947 182.76 176 182.633 176 182.5V173.5C176 173.367 175.947 173.24 175.854 173.146C175.76 173.053 175.633 173 175.5 173H172.5C172.367 173 172.24 173.053 172.146 173.146C172.053 173.24 172 173.367 172 173.5V174C172 174.53 171.789 175.039 171.414 175.414C171.039 175.789 170.53 176 170 176C169.47 176 168.961 175.789 168.586 175.414C168.211 175.039 168 174.53 168 174V171C168 170.47 168.211 169.961 168.586 169.586C168.961 169.211 169.47 169 170 169H186C186.53 169 187.039 169.211 187.414 169.586C187.789 169.961 188 170.47 188 171V174C188 174.53 187.789 175.039 187.414 175.414C187.039 175.789 186.53 176 186 176C185.47 176 184.961 175.789 184.586 175.414C184.211 175.039 184 174.53 184 174V173.5C184 173.367 183.947 173.24 183.854 173.146C183.76 173.053 183.633 173 183.5 173H180.5C180.367 173 180.24 173.053 180.146 173.146C180.053 173.24 180 173.367 180 173.5V182.5Z" stroke="white" stroke-width="2" stroke-linecap="round" stroke-linejoin="round"/>
<path d="M209 185.5V170.5C209 169.837 209.263 169.201 209.732 168.732C210.201 168.263 210.837 168 211.5 168H224C224.265 168 224.52 168.105 224.707 168.293C224.895 168.48 225 168.735 225 169V187C225 187.265 224.895 187.52 224.707 187.707C224.52 187.895 224.265 188 224 188H211.5C210.837 188 210.201 187.737 209.732 187.268C209.263 186.799 209 186.163 209 185.5ZM209 185.5C209 184.837 209.263 184.201 209.732 183.732C210.201 183.263 210.837 183 211.5 183H225M213 179L217 172L221 179M214.1 177H219.8" stroke="white" stroke-width="2" stroke-linecap="round" stroke-linejoin="round"/>
<path d="M252 178H256M254 182V175.5C254 174.837 254.263 174.201 254.732 173.732C255.201 173.263 255.837 173 256.5 173C257.163 173 257.799 173.263 258.268 173.732C258.737 174.201 259 174.837 259 175.5M252 182H259M247.85 174.62C247.704 173.963 247.726 173.279 247.915 172.632C248.104 171.986 248.453 171.397 248.929 170.922C249.406 170.446 249.995 170.098 250.642 169.911C251.289 169.724 251.973 169.703 252.63 169.85C252.992 169.284 253.49 168.819 254.079 168.496C254.668 168.174 255.329 168.005 256 168.005C256.671 168.005 257.332 168.174 257.921 168.496C258.51 168.819 259.008 169.284 259.37 169.85C260.028 169.702 260.713 169.723 261.361 169.911C262.009 170.098 262.599 170.447 263.076 170.924C263.553 171.401 263.901 171.991 264.089 172.639C264.277 173.287 264.298 173.972 264.15 174.63C264.716 174.992 265.181 175.49 265.504 176.079C265.826 176.668 265.995 177.329 265.995 178C265.995 178.671 265.826 179.332 265.504 179.921C265.181 180.51 264.716 181.008 264.15 181.37C264.297 182.027 264.276 182.711 264.089 183.358C263.902 184.005 263.554 184.594 263.078 185.071C262.603 185.547 262.014 185.896 261.368 186.085C260.721 186.274 260.037 186.296 259.38 186.15C259.019 186.718 258.52 187.185 257.93 187.509C257.34 187.833 256.678 188.003 256.005 188.003C255.332 188.003 254.67 187.833 254.08 187.509C253.49 187.185 252.991 186.718 252.63 186.15C251.973 186.297 251.289 186.276 250.642 186.089C249.995 185.902 249.406 185.554 248.929 185.078C248.453 184.603 248.104 184.014 247.915 183.368C247.726 182.721 247.704 182.037 247.85 181.38C247.28 181.019 246.81 180.52 246.485 179.929C246.16 179.338 245.989 178.675 245.989 178C245.989 177.325 246.16 176.662 246.485 176.071C246.81 175.48 247.28 174.981 247.85 174.62Z" stroke="white" stroke-width="2" stroke-linecap="round" stroke-linejoin="round"/>
<path d="M293 175.5L291 178L293 180.5M297 175.5L299 178L297 180.5M288 169H302C303.105 169 304 169.895 304 171V185C304 186.105 303.105 187 302 187H288C286.895 187 286 186.105 286 185V171C286 169.895 286.895 169 288 169Z" stroke="white" stroke-width="2" stroke-linecap="round" stroke-linejoin="round"/>
<path d="M340 185L341 178L335 179M327 174L330 171L335.5 174L333.14 177.5M326.24 180.5C325.958 181.423 325.949 182.408 326.214 183.336C326.48 184.264 327.008 185.096 327.735 185.73C328.463 186.364 329.358 186.775 330.314 186.911C331.269 187.048 332.244 186.905 333.12 186.5M335.76 183.5C336.042 182.577 336.051 181.592 335.786 180.664C335.52 179.736 334.992 178.904 334.265 178.27C333.537 177.636 332.642 177.225 331.686 177.089C330.731 176.952 329.756 177.095 328.88 177.5M339 170C339 170.552 338.552 171 338 171C337.448 171 337 170.552 337 170C337 169.448 337.448 169 338 169C338.552 169 339 169.448 339 170Z" stroke="white" stroke-width="2" stroke-linecap="round" stroke-linejoin="round"/>
<path d="M366 174L372 180M365 180L371 174L373 171M363 171H375M368 168H369M383 188L378 178L373 188M375 184H381" stroke="white" stroke-width="2" stroke-linecap="round" stroke-linejoin="round"/>
<path d="M38 213L44 219M37 219L43 213L45 210M35 210H47M40 207H41M55 227L50 217L45 227M47 223H53" stroke="white" stroke-width="2" stroke-linecap="round" stroke-linejoin="round"/>
<path d="M90 224L91 217L85 218M77 213L80 210L85.5 213L83.14 216.5M76.24 219.5C75.9578 220.423 75.9489 221.408 76.2142 222.336C76.4795 223.264 77.0078 224.096 77.7353 224.73C78.4627 225.364 79.3583 225.775 80.3138 225.911C81.2693 226.048 82.2439 225.905 83.12 225.5M85.76 222.5C86.0422 221.577 86.0511 220.592 85.7858 219.664C85.5205 218.736 84.9922 217.904 84.2647 217.27C83.5373 216.636 82.6417 216.225 81.6862 216.089C80.7307 215.952 79.7561 216.095 78.88 216.5M89 209C89 209.552 88.5523 210 88 210C87.4477 210 87 209.552 87 209C87 208.448 87.4477 208 88 208C88.5523 208 89 208.448 89 209Z" stroke="white" stroke-width="2" stroke-linecap="round" stroke-linejoin="round"/>
<path d="M121 214.5L119 217L121 219.5M125 214.5L127 217L125 219.5M116 208H130C131.105 208 132 208.895 132 210V224C132 225.105 131.105 226 130 226H116C114.895 226 114 225.105 114 224V210C114 208.895 114.895 208 116 208Z" stroke="white" stroke-width="2" stroke-linecap="round" stroke-linejoin="round"/>
<path d="M158 217H162M160 221V214.5C160 213.837 160.263 213.201 160.732 212.732C161.201 212.263 161.837 212 162.5 212C163.163 212 163.799 212.263 164.268 212.732C164.737 213.201 165 213.837 165 214.5M158 221H165M153.85 213.62C153.704 212.963 153.726 212.279 153.915 211.632C154.104 210.986 154.453 210.397 154.929 209.922C155.406 209.446 155.995 209.098 156.642 208.911C157.289 208.724 157.973 208.703 158.63 208.85C158.992 208.284 159.49 207.819 160.079 207.496C160.668 207.174 161.329 207.005 162 207.005C162.671 207.005 163.332 207.174 163.921 207.496C164.51 207.819 165.008 208.284 165.37 208.85C166.028 208.702 166.713 208.723 167.361 208.911C168.009 209.098 168.599 209.447 169.076 209.924C169.553 210.401 169.901 210.991 170.089 211.639C170.277 212.287 170.298 212.972 170.15 213.63C170.716 213.992 171.181 214.49 171.504 215.079C171.826 215.668 171.995 216.329 171.995 217C171.995 217.671 171.826 218.332 171.504 218.921C171.181 219.51 170.716 220.008 170.15 220.37C170.297 221.027 170.276 221.711 170.089 222.358C169.902 223.005 169.554 223.594 169.078 224.071C168.603 224.547 168.014 224.896 167.368 225.085C166.721 225.274 166.037 225.296 165.38 225.15C165.019 225.718 164.52 226.185 163.93 226.509C163.34 226.833 162.678 227.003 162.005 227.003C161.332 227.003 160.67 226.833 160.08 226.509C159.49 226.185 158.991 225.718 158.63 225.15C157.973 225.297 157.289 225.276 156.642 225.089C155.995 224.902 155.406 224.554 154.929 224.078C154.453 223.603 154.104 223.014 153.915 222.368C153.726 221.721 153.704 221.037 153.85 220.38C153.28 220.019 152.81 219.52 152.485 218.929C152.16 218.338 151.989 217.675 151.989 217C151.989 216.325 152.16 215.662 152.485 215.071C152.81 214.48 153.28 213.981 153.85 213.62Z" stroke="white" stroke-width="2" stroke-linecap="round" stroke-linejoin="round"/>
<path d="M193 224.5V209.5C193 208.837 193.263 208.201 193.732 207.732C194.201 207.263 194.837 207 195.5 207H208C208.265 207 208.52 207.105 208.707 207.293C208.895 207.48 209 207.735 209 208V226C209 226.265 208.895 226.52 208.707 226.707C208.52 226.895 208.265 227 208 227H195.5C194.837 227 194.201 226.737 193.732 226.268C193.263 225.799 193 225.163 193 224.5ZM193 224.5C193 223.837 193.263 223.201 193.732 222.732C194.201 222.263 194.837 222 195.5 222H209M197 218L201 211L205 218M198.1 216H203.8" stroke="white" stroke-width="2" stroke-linecap="round" stroke-linejoin="round"/>
<path d="M242 221.5C242 221.633 242.053 221.76 242.146 221.854C242.24 221.947 242.367 222 242.5 222H243C243.53 222 244.039 222.211 244.414 222.586C244.789 222.961 245 223.47 245 224C245 224.53 244.789 225.039 244.414 225.414C244.039 225.789 243.53 226 243 226H237C236.47 226 235.961 225.789 235.586 225.414C235.211 225.039 235 224.53 235 224C235 223.47 235.211 222.961 235.586 222.586C235.961 222.211 236.47 222 237 222H237.5C237.633 222 237.76 221.947 237.854 221.854C237.947 221.76 238 221.633 238 221.5V212.5C238 212.367 237.947 212.24 237.854 212.146C237.76 212.053 237.633 212 237.5 212H234.5C234.367 212 234.24 212.053 234.146 212.146C234.053 212.24 234 212.367 234 212.5V213C234 213.53 233.789 214.039 233.414 214.414C233.039 214.789 232.53 215 232 215C231.47 215 230.961 214.789 230.586 214.414C230.211 214.039 230 213.53 230 213V210C230 209.47 230.211 208.961 230.586 208.586C230.961 208.211 231.47 208 232 208H248C248.53 208 249.039 208.211 249.414 208.586C249.789 208.961 250 209.47 250 210V213C250 213.53 249.789 214.039 249.414 214.414C249.039 214.789 248.53 215 248 215C247.47 215 246.961 214.789 246.586 214.414C246.211 214.039 246 213.53 246 213V212.5C246 212.367 245.947 212.24 245.854 212.146C245.76 212.053 245.633 212 245.5 212H242.5C242.367 212 242.24 212.053 242.146 212.146C242.053 212.24 242 212.367 242 212.5V221.5Z" stroke="white" stroke-width="2" stroke-linecap="round" stroke-linejoin="round"/>
<path d="M270 222L272 224L276 220M280 211H288M280 217H288M280 223H288M271 210H275C275.552 210 276 210.448 276 211V215C276 215.552 275.552 216 275 216H271C270.448 216 270 215.552 270 215V211C270 210.448 270.448 210 271 210Z" stroke="white" stroke-width="2" stroke-linecap="round" stroke-linejoin="round"/>
<path d="M318 221V226M322 219V226M326 215V226M328 208L319.354 216.646C319.308 216.693 319.252 216.73 319.192 216.755C319.131 216.78 319.066 216.793 319 216.793C318.934 216.793 318.869 216.78 318.808 216.755C318.748 216.73 318.692 216.693 318.646 216.646L315.354 213.354C315.26 213.26 315.133 213.208 315 213.208C314.868 213.208 314.741 213.26 314.647 213.354L308 220M310 223V226M314 219V226" stroke="white" stroke-width="2" stroke-linecap="round" stroke-linejoin="round"/>
<path d="M357 207V209M357 225V227M349.9 209.9L351.3 211.3M362.7 222.7L364.1 224.1M347 217H349M365 217H367M351.3 222.7L349.9 224.1M364.1 209.9L362.7 211.3M357 213C356.498 213.536 356.225 214.246 356.237 214.98C356.249 215.715 356.546 216.415 357.066 216.934C357.585 217.454 358.285 217.751 359.02 217.763C359.754 217.775 360.464 217.502 361 217C361 217.791 360.765 218.564 360.326 219.222C359.886 219.88 359.262 220.393 358.531 220.696C357.8 220.998 356.996 221.077 356.22 220.923C355.444 220.769 354.731 220.388 354.172 219.828C353.612 219.269 353.231 218.556 353.077 217.78C352.923 217.004 353.002 216.2 353.304 215.469C353.607 214.738 354.12 214.114 354.778 213.674C355.436 213.235 356.209 213 357 213Z" stroke="white" stroke-width="2" stroke-linecap="round" stroke-linejoin="round"/>
<path d="M394 226V213C394 212.735 393.895 212.48 393.707 212.293C393.52 212.105 393.265 212 393 212H388C387.735 212 387.48 212.105 387.293 212.293C387.105 212.48 387 212.735 387 213V225C387 225.265 387.105 225.52 387.293 225.707C387.48 225.895 387.735 226 388 226H400C400.265 226 400.52 225.895 400.707 225.707C400.895 225.52 401 225.265 401 225V220C401 219.735 400.895 219.48 400.707 219.293C400.52 219.105 400.265 219 400 219H387M399 208H404C404.552 208 405 208.448 405 209V214C405 214.552 404.552 215 404 215H399C398.448 215 398 214.552 398 214V209C398 208.448 398.448 208 399 208Z" stroke="white" stroke-width="2" stroke-linecap="round" stroke-linejoin="round"/>
</svg>
